<?xml version="1.0" encoding="UTF-8"?>
<svg xmlns="http://www.w3.org/2000/svg" width="1600" height="1200" style="display: block; background: rgb(242, 237, 224);" viewBox="0 0 1600 1200" color="#f1eee6"><metadata id="abstract-study">{"title":"Broken compass","app":"QuasicrystallineWickerwork","source":"QuasicrystallineWickerwork/QuasicrystallineWickerwork_visual.js","visualId":"quasicrystallineWickerwork","concept":"Sparse angular samples reveal a broken compass beneath the radial weave; thirteen cross strands resist the irrational angular spacing.","seed":161803,"width":1600,"height":1200,"frames":0,"nativeRenderer":true,"sourceSha256":"10217a2adde4b6a876e0df7a0cecfd6bff955f57a6b0b5a9957065dfcb6aad77","exportedAt":"2026-09-24T23:23:21.366Z","renderMs":11}</metadata><title>Broken compass</title><desc>Sparse angular samples reveal a broken compass beneath the radial weave; thirteen cross strands resist the irrational angular spacing.</desc><metadata id="ohey-settings" data-format="json" data-owner="ohey-settings">{
  "strands": 62,
  "rings": 9,
  "twist": 0.49,
  "radialWarp": 0.65,
  "weftCount": 13,
  "fitMode": "stretch",
  "padding": 200,
  "strokeWidth": 2.1,
  "seed": 161803,
  "shouldRender": true,
  "overrideMinMax": true,
  "__paramRanges": {},
  "__xf": {
    "ui": {
      "splitCount": 1,
      "activeTile": "0",
      "rotateDeg": 0
    },
    "stack": []
  }
}</metadata><rect x="0" y="0" width="1600" height="1200" fill="#f2ede0" data-export-background="true"/><g><path d="M 800.00 600.00 L 885.91 619.47 L 987.18 663.38 L 1075.17 679.80 L 1109.23 631.92 L 1045.10 571.27 L 951.93 552.45 L 942.94 550.28 L 1082.39 536.37 L 1376.00 598.47" fill="none" stroke="#f4d35e" stroke-width="2.10" stroke-linecap="round" stroke-linejoin="round" stroke-opacity="0.85"/><path d="M 800.00 600.00 L 706.84 622.27 L 597.01 637.26 L 541.03 665.19 L 590.76 707.50 L 693.19 708.19 L 751.82 688.07 L 733.78 718.00 L 581.75 809.80 L 246.98 871.33" fill="none" stroke="#ee964b" stroke-width="2.10" stroke-linecap="round" stroke-linejoin="round" stroke-opacity="0.85"/><path d="M 800.00 600.00 L 851.18 539.60 L 907.60 484.63 L 888.59 447.03 L 813.14 457.15 L 763.79 502.32 L 749.60 516.41 L 721.47 448.90 L 778.38 280.73 L 1026.12 97.18" fill="none" stroke="#0d3b66" stroke-width="2.10" stroke-linecap="round" stroke-linejoin="round" stroke-opacity="0.85"/><path d="M 800.00 600.00 L 819.59 669.17 L 840.47 723.93 L 886.63 727.76 L 920.13 679.14 L 905.73 641.48 L 937.78 642.59 L 1059.89 711.86 L 1167.31 898.15 L 1110.80 1141.21" fill="none" stroke="#faf0ca" stroke-width="2.10" stroke-linecap="round" stroke-linejoin="round" stroke-opacity="0.85"/><path d="M 800.00 600.00 L 718.28 557.77 L 656.66 537.65 L 634.45 566.51 L 669.28 604.37 L 691.96 619.80 L 618.75 636.54 L 411.12 628.43 L 143.41 504.31 L -0.59 291.16" fill="none" stroke="#4f6d7a" stroke-width="2.10" stroke-linecap="round" stroke-linejoin="round" stroke-opacity="0.85"/><path d="M 800.00 600.00 L 897.46 595.66 L 944.30 577.47 L 918.97 554.17 L 869.01 548.08 L 859.58 530.56 L 928.81 461.67 L 1148.25 381.57 L 1480.34 387.72 L 1736.25 494.77" fill="none" stroke="#f4d35e" stroke-width="2.10" stroke-linecap="round" stroke-linejoin="round" stroke-opacity="0.85"/><path d="M 800.00 600.00 L 739.87 643.71 L 740.36 672.06 L 779.03 669.73 L 808.88 660.24 L 833.39 694.63 L 836.95 806.25 L 705.33 969.58 L 400.54 1068.91 L 170.73 1066.08" fill="none" stroke="#ee964b" stroke-width="2.10" stroke-linecap="round" stroke-linejoin="round" stroke-opacity="0.85"/><path d="M 800.00 600.00 L 796.77 548.04 L 771.19 536.78 L 749.74 555.49 L 726.69 562.62 L 646.92 528.17 L 523.92 420.73 L 511.97 221.65 L 660.79 47.70 L 817.30 0.65" fill="none" stroke="#0d3b66" stroke-width="2.10" stroke-linecap="round" stroke-linejoin="round" stroke-opacity="0.85"/><path d="M 800.00 600.00 L 848.86 629.39 L 870.83 620.70 L 869.93 603.72 L 907.64 591.36 L 1039.03 582.72 L 1256.36 633.37 L 1427.01 797.73 L 1415.72 982.83 L 1344.38 1016.72" fill="none" stroke="#faf0ca" stroke-width="2.10" stroke-linecap="round" stroke-linejoin="round" stroke-opacity="0.85"/><path d="M 800.00 600.00 L 746.92 604.15 L 745.37 616.70 L 748.92 629.54 L 710.98 670.06 L 587.07 741.62 L 351.75 783.60 L 83.36 688.68 L -13.41 573.92 L 66.23 561.71" fill="none" stroke="#4f6d7a" stroke-width="2.10" stroke-linecap="round" stroke-linejoin="round" stroke-opacity="0.85"/><path d="M 800.00 600.00 L 825.87 577.92 L 815.38 569.04 L 803.23 549.25 L 788.60 481.85 L 834.28 359.18 L 1025.01 243.34 L 1288.80 230.46 L 1401.87 290.89 L 1290.50 337.66" fill="none" stroke="#f4d35e" stroke-width="2.10" stroke-linecap="round" stroke-linejoin="round" stroke-opacity="0.85"/><path d="M 800.00 600.00 L 805.49 621.40 L 822.27 625.92 L 864.32 646.71 L 956.98 706.96 L 1029.50 835.36 L 958.14 997.69 L 754.11 1081.17 L 661.04 1045.83 L 752.39 943.16" fill="none" stroke="#ee964b" stroke-width="2.10" stroke-linecap="round" stroke-linejoin="round" stroke-opacity="0.85"/><path d="M 800.00 600.00 L 777.96 590.90 L 753.28 592.29 L 677.40 596.86 L 526.68 585.73 L 357.20 494.37 L 298.84 342.13 L 391.65 235.18 L 480.56 268.50 L 530.47 393.75" fill="none" stroke="#0d3b66" stroke-width="2.10" stroke-linecap="round" stroke-linejoin="round" stroke-opacity="0.85"/><path d="M 800.00 600.00 L 821.65 595.51 L 848.98 578.58 L 919.55 532.71 L 1063.18 476.05 L 1283.50 500.37 L 1426.41 613.86 L 1404.07 697.16 L 1278.84 675.22 L 1118.43 604.52" fill="none" stroke="#faf0ca" stroke-width="2.10" stroke-linecap="round" stroke-linejoin="round" stroke-opacity="0.85"/><path d="M 800.00 600.00 L 790.37 614.01 L 787.52 649.46 L 775.26 727.87 L 698.86 833.38 L 497.29 886.15 L 313.14 832.35 L 313.57 763.15 L 462.89 736.83 L 622.23 716.88" fill="none" stroke="#4f6d7a" stroke-width="2.10" stroke-linecap="round" stroke-linejoin="round" stroke-opacity="0.85"/><path d="M 800.00 600.00 L 790.21 583.07 L 745.79 546.69 L 671.17 472.80 L 667.00 350.73 L 795.08 249.31 L 940.44 244.41 L 968.75 315.42 L 876.75 401.23 L 790.93 460.12" fill="none" stroke="#f4d35e" stroke-width="2.10" stroke-linecap="round" stroke-linejoin="round" stroke-opacity="0.85"/><path d="M 800.00 600.00 L 832.09 608.62 L 917.65 618.20 L 1051.51 652.66 L 1156.06 744.37 L 1113.40 866.95 L 996.46 898.83 L 942.36 829.51 L 930.02 733.95 L 958.84 684.31" fill="none" stroke="#ee964b" stroke-width="2.10" stroke-linecap="round" stroke-linejoin="round" stroke-opacity="0.85"/><path d="M 800.00 600.00 L 759.84 612.94 L 675.55 650.38 L 529.16 670.27 L 379.29 624.23 L 338.15 528.71 L 421.64 481.81 L 529.79 524.83 L 607.43 579.06 L 573.36 623.55" fill="none" stroke="#0d3b66" stroke-width="2.10" stroke-linecap="round" stroke-linejoin="round" stroke-opacity="0.85"/><path d="M 800.00 600.00 L 817.98 564.40 L 852.99 493.13 L 948.75 419.58 L 1110.92 418.82 L 1187.12 481.65 L 1127.69 531.90 L 1011.38 544.99 L 940.24 525.60 L 952.25 438.06" fill="none" stroke="#faf0ca" stroke-width="2.10" stroke-linecap="round" stroke-linejoin="round" stroke-opacity="0.85"/><path d="M 800.00 600.00 L 830.00 641.26 L 873.50 715.67 L 842.66 809.13 L 718.64 854.02 L 631.09 818.15 L 662.16 756.55 L 732.07 711.69 L 788.92 728.49 L 894.48 838.37" fill="none" stroke="#4f6d7a" stroke-width="2.10" stroke-linecap="round" stroke-linejoin="round" stroke-opacity="0.85"/><path d="M 800.00 600.00 L 725.06 579.91 L 621.95 535.51 L 574.16 455.32 L 638.20 389.84 L 727.29 401.63 L 753.94 462.51 L 731.70 504.63 L 636.24 487.29 L 388.86 446.28" fill="none" stroke="#f4d35e" stroke-width="2.10" stroke-linecap="round" stroke-linejoin="round" stroke-opacity="0.85"/><path d="M 800.00 600.00 L 886.17 579.93 L 1007.49 577.69 L 1095.65 629.84 L 1078.12 691.71 L 1001.68 693.42 L 940.79 658.34 L 954.81 632.08 L 1102.04 590.27 L 1359.98 493.56" fill="none" stroke="#ee964b" stroke-width="2.10" stroke-linecap="round" stroke-linejoin="round" stroke-opacity="0.85"/><path d="M 800.00 600.00 L 751.77 657.90 L 657.65 703.25 L 558.08 687.55 L 545.08 638.47 L 609.68 614.20 L 665.00 624.00 L 634.31 663.68 L 553.08 799.66 L 466.45 1004.69" fill="none" stroke="#0d3b66" stroke-width="2.10" stroke-linecap="round" stroke-linejoin="round" stroke-opacity="0.85"/><path d="M 800.00 600.00 L 778.84 531.95 L 814.05 464.86 L 903.28 452.57 L 928.09 487.40 L 896.56 524.43 L 868.54 522.09 L 844.48 440.52 L 744.26 278.83 L 577.18 92.93" fill="none" stroke="#faf0ca" stroke-width="2.10" stroke-linecap="round" stroke-linejoin="round" stroke-opacity="0.85"/><path d="M 800.00 600.00 L 880.94 645.17 L 898.88 707.63 L 845.76 735.42 L 810.99 710.77 L 810.26 680.77 L 849.45 696.84 L 988.79 767.00 L 1269.14 832.09 L 1545.56 902.97" fill="none" stroke="#4f6d7a" stroke-width="2.10" stroke-linecap="round" stroke-linejoin="round" stroke-opacity="0.85"/><path d="M 800.00 600.00 L 696.87 598.34 L 641.39 559.29 L 663.99 530.97 L 709.11 538.91 L 713.39 552.66 L 623.64 549.38 L 404.97 581.27 L 131.65 671.86 L -117.06 691.10" fill="none" stroke="#f4d35e" stroke-width="2.10" stroke-linecap="round" stroke-linejoin="round" stroke-opacity="0.85"/><path d="M 800.00 600.00 L 878.67 561.87 L 941.20 573.10 L 935.48 597.72 L 902.72 604.39 L 920.16 590.57 L 1028.39 536.04 L 1155.94 382.32 L 1257.95 199.81 L 1413.80 116.74" fill="none" stroke="#ee964b" stroke-width="2.10" stroke-linecap="round" stroke-linejoin="round" stroke-opacity="0.85"/><path d="M 800.00 600.00 L 772.95 656.10 L 728.50 665.95 L 721.50 646.65 L 731.74 639.59 L 711.30 678.78 L 702.11 800.02 L 787.96 977.84 L 873.81 1138.67 L 800.75 1226.08" fill="none" stroke="#0d3b66" stroke-width="2.10" stroke-linecap="round" stroke-linejoin="round" stroke-opacity="0.85"/><path d="M 800.00 600.00 L 773.24 551.62 L 798.31 534.81 L 810.97 545.46 L 806.22 538.26 L 765.27 475.53 L 606.40 374.61 L 360.02 290.03 L 178.96 221.99 L 261.98 122.37" fill="none" stroke="#faf0ca" stroke-width="2.10" stroke-linecap="round" stroke-linejoin="round" stroke-opacity="0.85"/><path d="M 800.00 600.00 L 853.52 624.71 L 850.08 638.32 L 838.22 638.87 L 872.03 655.18 L 1006.34 686.42 L 1250.85 670.50 L 1496.22 599.15 L 1640.77 617.18 L 1595.81 743.01" fill="none" stroke="#4f6d7a" stroke-width="2.10" stroke-linecap="round" stroke-linejoin="round" stroke-opacity="0.85"/><path d="M 800.00 600.00 L 747.30 601.80 L 741.70 592.77 L 733.83 590.11 L 660.31 598.71 L 509.91 661.19 L 357.51 793.90 L 264.29 930.73 L 165.89 938.11 L 129.41 792.81" fill="none" stroke="#f4d35e" stroke-width="2.10" stroke-linecap="round" stroke-linejoin="round" stroke-opacity="0.85"/><path d="M 800.00 600.00 L 831.06 581.71 L 841.86 583.68 L 865.66 573.19 L 924.64 513.36 L 959.01 380.04 L 897.41 216.83 L 870.69 109.70 L 981.15 110.69 L 1105.51 238.34" fill="none" stroke="#ee964b" stroke-width="2.10" stroke-linecap="round" stroke-linejoin="round" stroke-opacity="0.85"/><path d="M 800.00 600.00 L 793.74 621.00 L 785.79 628.32 L 778.08 662.62 L 810.07 751.33 L 968.75 859.41 L 1155.95 937.29 L 1223.11 989.67 L 1100.29 1005.40 L 858.45 938.25" fill="none" stroke="#0d3b66" stroke-width="2.10" stroke-linecap="round" stroke-linejoin="round" stroke-opacity="0.85"/><path d="M 800.00 600.00 L 787.77 584.97 L 779.37 570.71 L 732.18 530.44 L 580.63 487.31 L 359.23 486.17 L 176.51 525.94 L 137.35 498.67 L 276.04 425.70 L 521.14 404.47" fill="none" stroke="#faf0ca" stroke-width="2.10" stroke-linecap="round" stroke-linejoin="round" stroke-opacity="0.85"/><path d="M 800.00 600.00 L 820.88 605.76 L 855.49 614.07 L 956.22 617.74 L 1119.87 562.47 L 1255.02 450.00 L 1330.06 378.30 L 1349.91 412.82 L 1278.31 541.21 L 1109.69 634.43" fill="none" stroke="#4f6d7a" stroke-width="2.10" stroke-linecap="round" stroke-linejoin="round" stroke-opacity="0.85"/><path d="M 800.00 600.00 L 777.99 605.00 L 730.13 620.49 L 643.89 678.46 L 602.66 805.88 L 640.28 933.95 L 638.70 982.91 L 576.55 927.65 L 528.49 786.14 L 585.35 680.99" fill="none" stroke="#f4d35e" stroke-width="2.10" stroke-linecap="round" stroke-linejoin="round" stroke-opacity="0.85"/><path d="M 800.00 600.00 L 812.74 583.72 L 834.59 538.94 L 818.42 445.68 L 697.08 343.47 L 571.98 284.32 L 559.85 271.30 L 695.90 305.31 L 836.98 399.18 L 880.24 471.53" fill="none" stroke="#ee964b" stroke-width="2.10" stroke-linecap="round" stroke-linejoin="round" stroke-opacity="0.85"/><path d="M 800.00 600.00 L 808.66 622.67 L 850.89 674.05 L 981.24 729.19 L 1169.29 729.76 L 1274.50 719.02 L 1243.97 731.12 L 1081.18 758.08 L 920.67 735.33 L 858.04 730.13" fill="none" stroke="#0d3b66" stroke-width="2.10" stroke-linecap="round" stroke-linejoin="round" stroke-opacity="0.85"/><path d="M 800.00 600.00 L 761.48 584.20 L 659.99 570.23 L 508.20 604.88 L 396.44 682.59 L 364.95 721.53 L 398.30 665.87 L 512.09 586.08 L 619.00 554.48 L 603.01 518.55" fill="none" stroke="#faf0ca" stroke-width="2.10" stroke-linecap="round" stroke-linejoin="round" stroke-opacity="0.85"/><path d="M 800.00 600.00 L 855.04 590.02 L 947.00 543.01 L 997.88 441.31 L 991.77 356.90 L 985.98 346.82 L 1009.79 422.38 L 988.27 519.39 L 971.99 566.43 L 1087.65 571.92" fill="none" stroke="#4f6d7a" stroke-width="2.10" stroke-linecap="round" stroke-linejoin="round" stroke-opacity="0.85"/><path d="M 800.00 600.00 L 766.02 640.39 L 761.44 723.62 L 833.01 809.97 L 921.52 845.60 L 885.57 836.45 L 796.79 779.03 L 741.03 712.58 L 689.17 706.71 L 563.74 794.24" fill="none" stroke="#f4d35e" stroke-width="2.10" stroke-linecap="round" stroke-linejoin="round" stroke-opacity="0.85"/><path d="M 800.00 600.00 L 773.47 548.69 L 680.52 490.39 L 549.22 475.48 L 493.09 485.00 L 555.16 481.21 L 673.26 489.78 L 749.98 500.06 L 774.87 441.87 L 753.98 283.18" fill="none" stroke="#ee964b" stroke-width="2.10" stroke-linecap="round" stroke-linejoin="round" stroke-opacity="0.85"/><path d="M 800.00 600.00 L 883.13 625.95 L 1009.31 614.07 L 1093.40 565.54 L 1101.91 560.66 L 1042.21 594.90 L 958.15 628.35 L 935.65 660.35 L 1024.06 739.70 L 1249.09 853.65" fill="none" stroke="#0d3b66" stroke-width="2.10" stroke-linecap="round" stroke-linejoin="round" stroke-opacity="0.85"/><path d="M 800.00 600.00 L 709.06 627.25 L 643.47 693.48 L 642.83 749.37 L 643.69 737.32 L 654.85 680.47 L 669.44 631.59 L 606.96 609.79 L 406.69 595.94 L 106.68 657.18" fill="none" stroke="#faf0ca" stroke-width="2.10" stroke-linecap="round" stroke-linejoin="round" stroke-opacity="0.85"/><path d="M 800.00 600.00 L 831.16 533.56 L 799.94 464.94 L 765.05 440.25 L 787.87 460.71 L 832.18 504.42 L 871.18 522.81 L 979.46 487.02 L 1162.68 379.80 L 1279.14 174.84" fill="none" stroke="#4f6d7a" stroke-width="2.10" stroke-linecap="round" stroke-linejoin="round" stroke-opacity="0.85"/><path d="M 800.00 600.00 L 851.82 661.28 L 932.16 689.48 L 955.93 689.89 L 910.15 681.16 L 849.31 673.35 L 813.12 703.02 L 770.14 811.09 L 758.61 992.13 L 958.37 1175.01" fill="none" stroke="#f4d35e" stroke-width="2.10" stroke-linecap="round" stroke-linejoin="round" stroke-opacity="0.85"/><path d="M 800.00 600.00 L 699.69 584.65 L 631.27 601.41 L 631.15 601.58 L 675.08 583.78 L 701.29 564.70 L 665.76 505.97 L 559.31 386.30 L 338.02 265.70 L 18.46 264.78" fill="none" stroke="#ee964b" stroke-width="2.10" stroke-linecap="round" stroke-linejoin="round" stroke-opacity="0.85"/><path d="M 800.00 600.00 L 878.94 562.60 L 901.94 530.81 L 901.14 541.75 L 889.51 567.59 L 920.87 588.77 L 1049.76 618.24 L 1278.33 664.01 L 1558.06 622.52 L 1715.45 430.40" fill="none" stroke="#0d3b66" stroke-width="2.10" stroke-linecap="round" stroke-linejoin="round" stroke-opacity="0.85"/><path d="M 800.00 600.00 L 785.99 657.80 L 793.39 680.32 L 784.91 668.37 L 759.82 653.85 L 693.89 670.44 L 529.72 713.77 L 323.44 810.10 L 239.73 993.45 L 387.30 1161.21" fill="none" stroke="#faf0ca" stroke-width="2.10" stroke-linecap="round" stroke-linejoin="round" stroke-opacity="0.85"/><path d="M 800.00 600.00 L 755.15 558.53 L 737.16 551.18 L 759.40 552.84 L 783.20 538.76 L 823.39 472.51 L 901.69 346.38 L 940.72 181.19 L 762.41 39.39 L 455.43 51.03" fill="none" stroke="#4f6d7a" stroke-width="2.10" stroke-linecap="round" stroke-linejoin="round" stroke-opacity="0.85"/><path d="M 800.00 600.00 L 863.77 606.04 L 874.34 607.33 L 864.44 617.03 L 884.20 648.30 L 933.32 738.57 L 1008.86 878.50 L 1196.04 983.78 L 1454.67 951.19 L 1571.67 783.85" fill="none" stroke="#f4d35e" stroke-width="2.10" stroke-linecap="round" stroke-linejoin="round" stroke-opacity="0.85"/><path d="M 800.00 600.00 L 757.01 619.62 L 749.92 620.18 L 734.34 611.87 L 658.95 590.82 L 505.93 539.50 L 299.17 478.61 L 76.92 527.08 L 0.17 683.18 L 150.08 813.50" fill="none" stroke="#ee964b" stroke-width="2.10" stroke-linecap="round" stroke-linejoin="round" stroke-opacity="0.85"/><path d="M 800.00 600.00 L 809.61 573.53 L 816.51 569.88 L 848.43 559.39 L 951.33 531.91 L 1144.31 510.31 L 1337.15 444.76 L 1382.06 296.93 L 1205.94 177.87 L 978.74 206.76" fill="none" stroke="#0d3b66" stroke-width="2.10" stroke-linecap="round" stroke-linejoin="round" stroke-opacity="0.85"/><path d="M 800.00 600.00 L 814.98 618.60 L 813.18 628.55 L 798.86 665.21 L 723.25 744.53 L 612.31 855.79 L 574.55 985.04 L 760.51 1079.18 L 966.21 1035.00 L 1028.65 899.84" fill="none" stroke="#faf0ca" stroke-width="2.10" stroke-linecap="round" stroke-linejoin="round" stroke-opacity="0.85"/><path d="M 800.00 600.00 L 776.44 593.72 L 759.73 581.43 L 726.15 531.76 L 703.62 424.95 L 654.08 298.62 L 523.33 220.09 L 330.49 274.96 L 285.63 421.19 L 418.30 522.23" fill="none" stroke="#4f6d7a" stroke-width="2.10" stroke-linecap="round" stroke-linejoin="round" stroke-opacity="0.85"/><path d="M 800.00 600.00 L 821.41 595.31 L 860.10 598.20 L 953.56 631.13 L 1088.28 703.35 L 1239.70 771.06 L 1396.67 723.26 L 1413.35 593.16 L 1254.90 496.23 L 1077.85 509.10" fill="none" stroke="#f4d35e" stroke-width="2.10" stroke-linecap="round" stroke-linejoin="round" stroke-opacity="0.85"/><path d="M 800.00 600.00 L 787.61 613.23 L 740.49 633.02 L 614.93 646.15 L 438.47 647.77 L 292.79 693.52 L 293.25 807.04 L 449.80 869.84 L 626.40 828.55 L 707.87 750.41" fill="none" stroke="#ee964b" stroke-width="2.10" stroke-linecap="round" stroke-linejoin="round" stroke-opacity="0.85"/><path d="M 800.00 600.00 L 797.28 581.50 L 823.83 535.79 L 921.57 466.56 L 1038.48 386.12 L 1052.48 293.14 L 906.79 243.54 L 738.03 303.38 L 701.14 411.76 L 739.85 467.56" fill="none" stroke="#0d3b66" stroke-width="2.10" stroke-linecap="round" stroke-linejoin="round" stroke-opacity="0.85"/><path d="M 800.00 600.00 L 824.24 617.38 L 847.03 676.18 L 844.30 775.54 L 858.64 875.98 L 963.34 918.86 L 1081.77 860.50 L 1092.68 743.28 L 1004.64 674.36 L 971.97 673.59" fill="none" stroke="#faf0ca" stroke-width="2.10" stroke-linecap="round" stroke-linejoin="round" stroke-opacity="0.85"/><path d="M 800.00 600.00 L 754.87 594.59 L 672.24 549.78 L 573.71 475.77 L 464.89 429.05 L 370.47 473.98 L 392.58 572.50 L 519.65 632.64 L 615.43 634.96 L 566.78 615.17" fill="none" stroke="#4f6d7a" stroke-width="2.10" stroke-linecap="round" stroke-linejoin="round" stroke-opacity="0.85"/><path d="M 800.00 600.00 L 851.68 582.86 L 969.19 582.32 L 1110.13 594.74 L 1206.86 561.18 L 1188.11 493.31 L 1050.02 451.37 L 921.83 477.35 L 901.97 501.69 L 1012.38 463.66" fill="none" stroke="#f4d35e" stroke-width="2.10" stroke-linecap="round" stroke-linejoin="round" stroke-opacity="0.85"/><path d="M 800.00 600.00 L 768.80 641.89 L 671.84 693.80 L 571.24 746.06 L 575.58 809.54 L 683.79 828.15 L 801.15 776.57 L 827.18 716.63 L 826.29 729.77 L 747.63 851.22" fill="none" stroke="#ee964b" stroke-width="2.10" stroke-linecap="round" stroke-linejoin="round" stroke-opacity="0.85"/><path d="M 800.00 600.00 L 875.11 639.72 L 932.46 634.92 L 926.20 619.66 L 892.65 624.43 L 897.57 651.60 L 977.29 726.06 L 1190.60 806.56 L 1513.19 788.03 L 1725.46 744.20" fill="none" stroke="#1f1f1f" stroke-width="1.05" stroke-linecap="round" stroke-linejoin="round" stroke-opacity="0.85"/><path d="M 800.00 600.00 L 853.35 642.34 L 882.73 647.72 L 861.14 646.22 L 837.36 654.45 L 844.76 707.73 L 939.19 816.43 L 1189.95 909.46 L 1427.77 962.09 L 1409.08 1060.43" fill="none" stroke="#1f1f1f" stroke-width="1.05" stroke-linecap="round" stroke-linejoin="round" stroke-opacity="0.85"/><path d="M 800.00 600.00 L 824.44 641.60 L 819.69 651.20 L 797.03 647.29 L 777.63 669.23 L 778.94 755.94 L 891.11 895.23 L 1051.22 1027.68 L 1009.31 1144.45 L 765.04 1157.41" fill="none" stroke="#1f1f1f" stroke-width="1.05" stroke-linecap="round" stroke-linejoin="round" stroke-opacity="0.85"/><path d="M 800.00 600.00 L 788.89 632.93 L 772.12 633.04 L 756.10 635.19 L 719.31 681.35 L 708.83 801.35 L 739.77 957.92 L 638.97 1077.15 L 405.96 1067.03 L 344.90 964.76" fill="none" stroke="#1f1f1f" stroke-width="1.05" stroke-linecap="round" stroke-linejoin="round" stroke-opacity="0.85"/><path d="M 800.00 600.00 L 769.76 613.44 L 757.86 611.74 L 724.41 627.04 L 655.39 695.62 L 576.82 818.74 L 413.89 909.40 L 190.00 871.17 L 137.19 784.70 L 302.10 778.13" fill="none" stroke="#1f1f1f" stroke-width="1.05" stroke-linecap="round" stroke-linejoin="round" stroke-opacity="0.85"/><path d="M 800.00 600.00 L 773.67 598.51 L 752.52 599.97 L 685.13 622.42 L 562.02 684.06 L 371.46 722.08 L 171.91 649.64 L 114.73 561.32 L 199.58 599.57 L 396.73 678.70" fill="none" stroke="#1f1f1f" stroke-width="1.05" stroke-linecap="round" stroke-linejoin="round" stroke-opacity="0.85"/><path d="M 800.00 600.00 L 780.25 592.90 L 739.39 591.31 L 634.99 600.04 L 467.95 584.56 L 319.21 482.29 L 274.38 378.24 L 267.91 408.86 L 341.98 534.30 L 500.08 600.07" fill="none" stroke="#1f1f1f" stroke-width="1.05" stroke-linecap="round" stroke-linejoin="round" stroke-opacity="0.85"/><path d="M 800.00 600.00 L 781.01 589.14 L 723.17 572.87 L 616.34 526.01 L 538.33 412.40 L 534.25 295.84 L 483.57 280.73 L 423.15 384.58 L 496.50 492.82 L 608.95 523.02" fill="none" stroke="#1f1f1f" stroke-width="1.05" stroke-linecap="round" stroke-linejoin="round" stroke-opacity="0.85"/><path d="M 800.00 600.00 L 781.07 581.37 L 737.86 532.84 L 728.12 433.00 L 779.68 323.38 L 753.21 260.78 L 622.97 291.13 L 586.41 389.84 L 671.37 460.98 L 744.22 470.40" fill="none" stroke="#1f1f1f" stroke-width="1.05" stroke-linecap="round" stroke-linejoin="round" stroke-opacity="0.85"/><path d="M 800.00 600.00 L 796.33 568.59 L 828.59 500.95 L 923.03 420.68 L 964.09 341.24 L 861.09 293.50 L 757.35 334.68 L 778.58 416.72 L 835.66 476.46 L 899.93 454.34" fill="none" stroke="#1f1f1f" stroke-width="1.05" stroke-linecap="round" stroke-linejoin="round" stroke-opacity="0.85"/><path d="M 800.00 600.00 L 838.86 566.60 L 942.14 525.77 L 1044.67 468.18 L 1036.17 383.72 L 947.05 356.37 L 916.97 414.39 L 921.28 495.73 L 944.43 524.57 L 1057.66 461.19" fill="none" stroke="#1f1f1f" stroke-width="1.05" stroke-linecap="round" stroke-linejoin="round" stroke-opacity="0.85"/><path d="M 800.00 600.00 L 878.25 590.09 L 997.94 574.75 L 1083.53 510.01 L 1074.37 446.46 L 1039.52 466.32 L 995.86 538.25 L 956.76 580.14 L 1025.98 571.17 L 1216.17 467.91" fill="none" stroke="#1f1f1f" stroke-width="1.05" stroke-linecap="round" stroke-linejoin="round" stroke-opacity="0.85"/><path d="M 800.00 600.00 L 889.23 618.46 L 1010.59 607.43 L 1087.88 559.53 L 1091.78 556.42 L 1031.94 604.29 L 951.24 629.91 L 959.25 632.95 L 1120.76 611.31 L 1395.66 516.27" fill="none" stroke="#1f1f1f" stroke-width="1.05" stroke-linecap="round" stroke-linejoin="round" stroke-opacity="0.85"/></g><g/></svg>
